<mxfile host="app.diagrams.net" modified="2022-10-10T06:41:53.821Z" agent="5.0 (Macintosh; Intel Mac OS X 10_15_7) AppleWebKit/537.36 (KHTML, like Gecko) Chrome/104.0.0.0 Safari/537.36" etag="qZ9Ki-G2Ko2EFZ5zOlUv" version="20.3.0" type="github">
  <diagram id="Qek8na-ewpHqfRSx6xFg" name="第 1 页">
    <mxGraphModel dx="1090" dy="455" grid="1" gridSize="10" guides="1" tooltips="1" connect="1" arrows="1" fold="1" page="1" pageScale="1" pageWidth="827" pageHeight="1169" math="0" shadow="0">
      <root>
        <mxCell id="0" />
        <mxCell id="1" parent="0" />
        <mxCell id="V_g7C5P6OYZNcfV3Ak9o-60" value="" style="edgeStyle=orthogonalEdgeStyle;rounded=0;orthogonalLoop=1;jettySize=auto;html=1;" edge="1" parent="1" source="V_g7C5P6OYZNcfV3Ak9o-1" target="V_g7C5P6OYZNcfV3Ak9o-4">
          <mxGeometry relative="1" as="geometry" />
        </mxCell>
        <mxCell id="V_g7C5P6OYZNcfV3Ak9o-1" value="海量源代码搜索引擎系统" style="rounded=0;whiteSpace=wrap;html=1;direction=east;" vertex="1" parent="1">
          <mxGeometry x="335" y="40" width="80" height="90" as="geometry" />
        </mxCell>
        <mxCell id="V_g7C5P6OYZNcfV3Ak9o-2" value="数据采集" style="rounded=0;whiteSpace=wrap;html=1;direction=south;" vertex="1" parent="1">
          <mxGeometry x="140" y="180" width="30" height="70" as="geometry" />
        </mxCell>
        <mxCell id="V_g7C5P6OYZNcfV3Ak9o-51" value="" style="edgeStyle=orthogonalEdgeStyle;rounded=0;orthogonalLoop=1;jettySize=auto;html=1;" edge="1" parent="1" source="V_g7C5P6OYZNcfV3Ak9o-3" target="V_g7C5P6OYZNcfV3Ak9o-11">
          <mxGeometry relative="1" as="geometry" />
        </mxCell>
        <mxCell id="V_g7C5P6OYZNcfV3Ak9o-3" value="数据存储" style="rounded=0;whiteSpace=wrap;html=1;direction=south;" vertex="1" parent="1">
          <mxGeometry x="260" y="180" width="30" height="70" as="geometry" />
        </mxCell>
        <mxCell id="V_g7C5P6OYZNcfV3Ak9o-53" value="" style="edgeStyle=orthogonalEdgeStyle;rounded=0;orthogonalLoop=1;jettySize=auto;html=1;" edge="1" parent="1" source="V_g7C5P6OYZNcfV3Ak9o-4" target="V_g7C5P6OYZNcfV3Ak9o-13">
          <mxGeometry relative="1" as="geometry" />
        </mxCell>
        <mxCell id="V_g7C5P6OYZNcfV3Ak9o-4" value="索引建立" style="rounded=0;whiteSpace=wrap;html=1;direction=south;" vertex="1" parent="1">
          <mxGeometry x="360" y="180" width="30" height="70" as="geometry" />
        </mxCell>
        <mxCell id="V_g7C5P6OYZNcfV3Ak9o-6" value="系统管理" style="rounded=0;whiteSpace=wrap;html=1;direction=south;" vertex="1" parent="1">
          <mxGeometry x="580" y="180" width="30" height="70" as="geometry" />
        </mxCell>
        <mxCell id="V_g7C5P6OYZNcfV3Ak9o-7" value="网页采集" style="rounded=0;whiteSpace=wrap;html=1;direction=south;" vertex="1" parent="1">
          <mxGeometry x="100" y="290" width="30" height="80" as="geometry" />
        </mxCell>
        <mxCell id="V_g7C5P6OYZNcfV3Ak9o-8" value="URL任务分发" style="rounded=0;whiteSpace=wrap;html=1;direction=south;" vertex="1" parent="1">
          <mxGeometry x="140" y="290" width="30" height="80" as="geometry" />
        </mxCell>
        <mxCell id="V_g7C5P6OYZNcfV3Ak9o-9" value="URL去重" style="rounded=0;whiteSpace=wrap;html=1;direction=south;" vertex="1" parent="1">
          <mxGeometry x="180" y="290" width="30" height="80" as="geometry" />
        </mxCell>
        <mxCell id="V_g7C5P6OYZNcfV3Ak9o-10" value="数据去重" style="rounded=0;whiteSpace=wrap;html=1;direction=south;" vertex="1" parent="1">
          <mxGeometry x="240" y="290" width="30" height="80" as="geometry" />
        </mxCell>
        <mxCell id="V_g7C5P6OYZNcfV3Ak9o-11" value="数据导入" style="rounded=0;whiteSpace=wrap;html=1;direction=south;" vertex="1" parent="1">
          <mxGeometry x="280" y="290" width="30" height="80" as="geometry" />
        </mxCell>
        <mxCell id="V_g7C5P6OYZNcfV3Ak9o-12" value="索引构建" style="rounded=0;whiteSpace=wrap;html=1;direction=south;" vertex="1" parent="1">
          <mxGeometry x="340" y="290" width="30" height="80" as="geometry" />
        </mxCell>
        <mxCell id="V_g7C5P6OYZNcfV3Ak9o-13" value="索引与数据&lt;br&gt;同步" style="rounded=0;whiteSpace=wrap;html=1;direction=south;" vertex="1" parent="1">
          <mxGeometry x="379" y="290" width="30" height="80" as="geometry" />
        </mxCell>
        <mxCell id="V_g7C5P6OYZNcfV3Ak9o-14" value="爬虫管理" style="rounded=0;whiteSpace=wrap;html=1;direction=south;" vertex="1" parent="1">
          <mxGeometry x="540" y="290" width="30" height="80" as="geometry" />
        </mxCell>
        <mxCell id="V_g7C5P6OYZNcfV3Ak9o-15" value="集群管理" style="rounded=0;whiteSpace=wrap;html=1;direction=south;" vertex="1" parent="1">
          <mxGeometry x="580" y="290" width="30" height="80" as="geometry" />
        </mxCell>
        <mxCell id="V_g7C5P6OYZNcfV3Ak9o-16" value="数据库与索引库管理" style="rounded=0;whiteSpace=wrap;html=1;direction=south;" vertex="1" parent="1">
          <mxGeometry x="620" y="290" width="30" height="80" as="geometry" />
        </mxCell>
        <mxCell id="V_g7C5P6OYZNcfV3Ak9o-31" value="查询检索" style="rounded=0;whiteSpace=wrap;html=1;direction=south;" vertex="1" parent="1">
          <mxGeometry x="460" y="180" width="30" height="70" as="geometry" />
        </mxCell>
        <mxCell id="V_g7C5P6OYZNcfV3Ak9o-32" value="关键词检索" style="rounded=0;whiteSpace=wrap;html=1;direction=south;" vertex="1" parent="1">
          <mxGeometry x="440" y="290" width="30" height="80" as="geometry" />
        </mxCell>
        <mxCell id="V_g7C5P6OYZNcfV3Ak9o-33" value="高级检索" style="rounded=0;whiteSpace=wrap;html=1;direction=south;" vertex="1" parent="1">
          <mxGeometry x="480" y="290" width="30" height="80" as="geometry" />
        </mxCell>
        <mxCell id="V_g7C5P6OYZNcfV3Ak9o-47" value="" style="endArrow=classic;html=1;rounded=0;exitX=1;exitY=0.5;exitDx=0;exitDy=0;entryX=0;entryY=0.5;entryDx=0;entryDy=0;" edge="1" parent="1" source="V_g7C5P6OYZNcfV3Ak9o-2" target="V_g7C5P6OYZNcfV3Ak9o-8">
          <mxGeometry width="50" height="50" relative="1" as="geometry">
            <mxPoint x="390" y="250" as="sourcePoint" />
            <mxPoint x="440" y="200" as="targetPoint" />
          </mxGeometry>
        </mxCell>
        <mxCell id="V_g7C5P6OYZNcfV3Ak9o-48" value="" style="endArrow=classic;html=1;rounded=0;exitX=1;exitY=0.5;exitDx=0;exitDy=0;entryX=0;entryY=0.5;entryDx=0;entryDy=0;" edge="1" parent="1" source="V_g7C5P6OYZNcfV3Ak9o-2" target="V_g7C5P6OYZNcfV3Ak9o-7">
          <mxGeometry width="50" height="50" relative="1" as="geometry">
            <mxPoint x="390" y="250" as="sourcePoint" />
            <mxPoint x="440" y="200" as="targetPoint" />
            <Array as="points">
              <mxPoint x="155" y="270" />
              <mxPoint x="115" y="270" />
            </Array>
          </mxGeometry>
        </mxCell>
        <mxCell id="V_g7C5P6OYZNcfV3Ak9o-50" value="" style="endArrow=classic;html=1;rounded=0;exitX=1;exitY=0.5;exitDx=0;exitDy=0;entryX=0;entryY=0.5;entryDx=0;entryDy=0;" edge="1" parent="1" source="V_g7C5P6OYZNcfV3Ak9o-2" target="V_g7C5P6OYZNcfV3Ak9o-9">
          <mxGeometry width="50" height="50" relative="1" as="geometry">
            <mxPoint x="390" y="250" as="sourcePoint" />
            <mxPoint x="440" y="200" as="targetPoint" />
            <Array as="points">
              <mxPoint x="155" y="270" />
              <mxPoint x="195" y="270" />
            </Array>
          </mxGeometry>
        </mxCell>
        <mxCell id="V_g7C5P6OYZNcfV3Ak9o-52" value="" style="endArrow=classic;html=1;rounded=0;exitX=1;exitY=0.5;exitDx=0;exitDy=0;entryX=0;entryY=0.5;entryDx=0;entryDy=0;" edge="1" parent="1" source="V_g7C5P6OYZNcfV3Ak9o-3" target="V_g7C5P6OYZNcfV3Ak9o-10">
          <mxGeometry width="50" height="50" relative="1" as="geometry">
            <mxPoint x="390" y="320" as="sourcePoint" />
            <mxPoint x="450" y="260" as="targetPoint" />
            <Array as="points">
              <mxPoint x="275" y="270" />
              <mxPoint x="255" y="270" />
            </Array>
          </mxGeometry>
        </mxCell>
        <mxCell id="V_g7C5P6OYZNcfV3Ak9o-54" value="" style="endArrow=classic;html=1;rounded=0;exitX=1;exitY=0.5;exitDx=0;exitDy=0;entryX=0;entryY=0.5;entryDx=0;entryDy=0;" edge="1" parent="1" source="V_g7C5P6OYZNcfV3Ak9o-4" target="V_g7C5P6OYZNcfV3Ak9o-12">
          <mxGeometry width="50" height="50" relative="1" as="geometry">
            <mxPoint x="390" y="320" as="sourcePoint" />
            <mxPoint x="440" y="270" as="targetPoint" />
            <Array as="points">
              <mxPoint x="375" y="270" />
              <mxPoint x="355" y="270" />
            </Array>
          </mxGeometry>
        </mxCell>
        <mxCell id="V_g7C5P6OYZNcfV3Ak9o-55" value="" style="endArrow=classic;html=1;rounded=0;exitX=1;exitY=0.5;exitDx=0;exitDy=0;entryX=0;entryY=0.5;entryDx=0;entryDy=0;" edge="1" parent="1" source="V_g7C5P6OYZNcfV3Ak9o-31" target="V_g7C5P6OYZNcfV3Ak9o-32">
          <mxGeometry width="50" height="50" relative="1" as="geometry">
            <mxPoint x="390" y="320" as="sourcePoint" />
            <mxPoint x="440" y="270" as="targetPoint" />
            <Array as="points">
              <mxPoint x="475" y="270" />
              <mxPoint x="455" y="270" />
            </Array>
          </mxGeometry>
        </mxCell>
        <mxCell id="V_g7C5P6OYZNcfV3Ak9o-56" value="" style="endArrow=classic;html=1;rounded=0;exitX=1;exitY=0.5;exitDx=0;exitDy=0;entryX=0;entryY=0.5;entryDx=0;entryDy=0;" edge="1" parent="1" source="V_g7C5P6OYZNcfV3Ak9o-31" target="V_g7C5P6OYZNcfV3Ak9o-33">
          <mxGeometry width="50" height="50" relative="1" as="geometry">
            <mxPoint x="390" y="320" as="sourcePoint" />
            <mxPoint x="440" y="270" as="targetPoint" />
            <Array as="points">
              <mxPoint x="475" y="270" />
              <mxPoint x="495" y="270" />
            </Array>
          </mxGeometry>
        </mxCell>
        <mxCell id="V_g7C5P6OYZNcfV3Ak9o-57" value="" style="endArrow=classic;html=1;rounded=0;exitX=1;exitY=0.5;exitDx=0;exitDy=0;entryX=0;entryY=0.5;entryDx=0;entryDy=0;" edge="1" parent="1" source="V_g7C5P6OYZNcfV3Ak9o-6" target="V_g7C5P6OYZNcfV3Ak9o-15">
          <mxGeometry width="50" height="50" relative="1" as="geometry">
            <mxPoint x="390" y="320" as="sourcePoint" />
            <mxPoint x="440" y="270" as="targetPoint" />
          </mxGeometry>
        </mxCell>
        <mxCell id="V_g7C5P6OYZNcfV3Ak9o-58" value="" style="endArrow=classic;html=1;rounded=0;exitX=1;exitY=0.5;exitDx=0;exitDy=0;entryX=0;entryY=0.5;entryDx=0;entryDy=0;" edge="1" parent="1" source="V_g7C5P6OYZNcfV3Ak9o-6" target="V_g7C5P6OYZNcfV3Ak9o-14">
          <mxGeometry width="50" height="50" relative="1" as="geometry">
            <mxPoint x="390" y="320" as="sourcePoint" />
            <mxPoint x="440" y="270" as="targetPoint" />
            <Array as="points">
              <mxPoint x="595" y="270" />
              <mxPoint x="555" y="270" />
            </Array>
          </mxGeometry>
        </mxCell>
        <mxCell id="V_g7C5P6OYZNcfV3Ak9o-59" value="" style="endArrow=classic;html=1;rounded=0;exitX=1;exitY=0.5;exitDx=0;exitDy=0;entryX=0;entryY=0.5;entryDx=0;entryDy=0;" edge="1" parent="1" source="V_g7C5P6OYZNcfV3Ak9o-6" target="V_g7C5P6OYZNcfV3Ak9o-16">
          <mxGeometry width="50" height="50" relative="1" as="geometry">
            <mxPoint x="390" y="320" as="sourcePoint" />
            <mxPoint x="440" y="270" as="targetPoint" />
            <Array as="points">
              <mxPoint x="595" y="270" />
              <mxPoint x="635" y="270" />
            </Array>
          </mxGeometry>
        </mxCell>
        <mxCell id="V_g7C5P6OYZNcfV3Ak9o-61" value="" style="endArrow=classic;html=1;rounded=0;exitX=0.5;exitY=1;exitDx=0;exitDy=0;entryX=0;entryY=0.5;entryDx=0;entryDy=0;" edge="1" parent="1" source="V_g7C5P6OYZNcfV3Ak9o-1" target="V_g7C5P6OYZNcfV3Ak9o-2">
          <mxGeometry width="50" height="50" relative="1" as="geometry">
            <mxPoint x="390" y="230" as="sourcePoint" />
            <mxPoint x="440" y="180" as="targetPoint" />
            <Array as="points">
              <mxPoint x="375" y="150" />
              <mxPoint x="155" y="150" />
            </Array>
          </mxGeometry>
        </mxCell>
        <mxCell id="V_g7C5P6OYZNcfV3Ak9o-62" value="" style="endArrow=classic;html=1;rounded=0;exitX=0.5;exitY=1;exitDx=0;exitDy=0;entryX=0;entryY=0.5;entryDx=0;entryDy=0;" edge="1" parent="1" source="V_g7C5P6OYZNcfV3Ak9o-1" target="V_g7C5P6OYZNcfV3Ak9o-3">
          <mxGeometry width="50" height="50" relative="1" as="geometry">
            <mxPoint x="390" y="230" as="sourcePoint" />
            <mxPoint x="440" y="180" as="targetPoint" />
            <Array as="points">
              <mxPoint x="375" y="150" />
              <mxPoint x="275" y="150" />
            </Array>
          </mxGeometry>
        </mxCell>
        <mxCell id="V_g7C5P6OYZNcfV3Ak9o-63" value="" style="endArrow=classic;html=1;rounded=0;exitX=0.5;exitY=1;exitDx=0;exitDy=0;entryX=0;entryY=0.5;entryDx=0;entryDy=0;" edge="1" parent="1" source="V_g7C5P6OYZNcfV3Ak9o-1" target="V_g7C5P6OYZNcfV3Ak9o-31">
          <mxGeometry width="50" height="50" relative="1" as="geometry">
            <mxPoint x="390" y="240" as="sourcePoint" />
            <mxPoint x="440" y="190" as="targetPoint" />
            <Array as="points">
              <mxPoint x="375" y="150" />
              <mxPoint x="475" y="150" />
            </Array>
          </mxGeometry>
        </mxCell>
        <mxCell id="V_g7C5P6OYZNcfV3Ak9o-64" value="" style="endArrow=classic;html=1;rounded=0;exitX=0.5;exitY=1;exitDx=0;exitDy=0;entryX=0;entryY=0.5;entryDx=0;entryDy=0;" edge="1" parent="1" source="V_g7C5P6OYZNcfV3Ak9o-1" target="V_g7C5P6OYZNcfV3Ak9o-6">
          <mxGeometry width="50" height="50" relative="1" as="geometry">
            <mxPoint x="390" y="240" as="sourcePoint" />
            <mxPoint x="440" y="190" as="targetPoint" />
            <Array as="points">
              <mxPoint x="375" y="150" />
              <mxPoint x="595" y="150" />
            </Array>
          </mxGeometry>
        </mxCell>
      </root>
    </mxGraphModel>
  </diagram>
</mxfile>
